<svg xmlns="http://www.w3.org/2000/svg" width="1440" height="860" viewBox="0 0 1440 860" role="img" aria-labelledby="title desc">
  <title id="title">Accounting Control Workflow</title>
  <desc id="desc">A clean five-step review workflow for provider-controlled financial snapshots with provenance, freshness, readiness, and balanced journal evidence.</desc>
  <defs>
    <linearGradient id="background" x1="0" y1="0" x2="1" y2="1">
      <stop offset="0" stop-color="#f7fbff"/>
      <stop offset="1" stop-color="#eef6f2"/>
    </linearGradient>
    <linearGradient id="panel" x1="0" y1="0" x2="0" y2="1">
      <stop offset="0" stop-color="#ffffff"/>
      <stop offset="1" stop-color="#f5f9fb"/>
    </linearGradient>
    <filter id="softShadow" x="-8%" y="-10%" width="116%" height="125%">
      <feDropShadow dx="0" dy="10" stdDeviation="12" flood-color="#193747" flood-opacity="0.12"/>
    </filter>
    <marker id="arrow" viewBox="0 0 10 10" refX="9" refY="5" markerWidth="8" markerHeight="8" orient="auto">
      <path d="M 0 0 L 10 5 L 0 10 z" fill="#557487"/>
    </marker>
    <style>
      .title { font: 700 44px system-ui, -apple-system, Segoe UI, sans-serif; fill: #17364a; }
      .subtitle { font: 400 22px system-ui, -apple-system, Segoe UI, sans-serif; fill: #516879; }
      .panel-title { font: 700 24px system-ui, -apple-system, Segoe UI, sans-serif; fill: #17364a; }
      .step-number { font: 700 14px system-ui, -apple-system, Segoe UI, sans-serif; fill: #2d6179; letter-spacing: .08em; }
      .step-title { font: 700 24px system-ui, -apple-system, Segoe UI, sans-serif; fill: #18384b; }
      .step-copy { font: 400 17px system-ui, -apple-system, Segoe UI, sans-serif; fill: #526879; }
      .footer { font: 600 18px system-ui, -apple-system, Segoe UI, sans-serif; fill: #345a70; }
      .card { fill: url(#panel); stroke: #c5d8e2; stroke-width: 1.5; filter: url(#softShadow); }
      .connector { stroke: #557487; stroke-width: 3.5; fill: none; marker-end: url(#arrow); stroke-linecap: round; }
      .dot { fill: #2d6179; }
    </style>
  </defs>

  <rect width="1440" height="860" fill="url(#background)"/>

  <text class="title" x="88" y="86">Accounting Control Workflow</text>
  <text class="subtitle" x="88" y="124">Provider-controlled financial snapshots with provenance, freshness, readiness, and balanced journal evidence.</text>

  <rect x="72" y="168" width="1296" height="560" rx="34" fill="#ffffff" stroke="#d8e6ec"/>
  <text class="panel-title" x="112" y="222">Primary public review path</text>
  <text class="subtitle" x="112" y="256">The reviewer starts with controlled inputs, then moves from evidence to controls before opening technical diagnostics.</text>

  <g transform="translate(112 318)">
    <rect class="card" x="0" y="0" width="220" height="230" rx="24"/>
    <circle class="dot" cx="34" cy="36" r="15"/>
    <text class="step-number" x="62" y="42">STEP 01</text>
    <text class="step-title" x="30" y="88">Select</text>
    <text class="step-title" x="30" y="119">Providers</text>
    <text class="step-copy" x="30" y="160">Choose FX, market,</text>
    <text class="step-copy" x="30" y="184">and tax providers</text>
    <text class="step-copy" x="30" y="208">from the catalog.</text>
  </g>

  <path class="connector" d="M 344 433 H 360"/>

  <g transform="translate(373 318)">
    <rect class="card" x="0" y="0" width="220" height="230" rx="24"/>
    <circle class="dot" cx="34" cy="36" r="15"/>
    <text class="step-number" x="62" y="42">STEP 02</text>
    <text class="step-title" x="30" y="88">Generate</text>
    <text class="step-title" x="30" y="119">Snapshot</text>
    <text class="step-copy" x="30" y="160">Create rates, quotes,</text>
    <text class="step-copy" x="30" y="184">tax rules, and</text>
    <text class="step-copy" x="30" y="208">freshness metrics.</text>
  </g>

  <path class="connector" d="M 605 433 H 621"/>

  <g transform="translate(634 318)">
    <rect class="card" x="0" y="0" width="220" height="230" rx="24"/>
    <circle class="dot" cx="34" cy="36" r="15"/>
    <text class="step-number" x="62" y="42">STEP 03</text>
    <text class="step-title" x="30" y="88">Review</text>
    <text class="step-title" x="30" y="119">Evidence</text>
    <text class="step-copy" x="30" y="160">Check provenance,</text>
    <text class="step-copy" x="30" y="184">cache diagnostics,</text>
    <text class="step-copy" x="30" y="208">and readiness.</text>
  </g>

  <path class="connector" d="M 866 433 H 882"/>

  <g transform="translate(895 318)">
    <rect class="card" x="0" y="0" width="220" height="230" rx="24"/>
    <circle class="dot" cx="34" cy="36" r="15"/>
    <text class="step-number" x="62" y="42">STEP 04</text>
    <text class="step-title" x="30" y="88">Confirm</text>
    <text class="step-title" x="30" y="119">Journal Controls</text>
    <text class="step-copy" x="30" y="160">Validate balanced</text>
    <text class="step-copy" x="30" y="184">posting evidence</text>
    <text class="step-copy" x="30" y="208">and accounts.</text>
  </g>

  <path class="connector" d="M 1127 433 H 1143"/>

  <g transform="translate(1156 318)">
    <rect class="card" x="0" y="0" width="180" height="230" rx="24"/>
    <circle class="dot" cx="34" cy="36" r="15"/>
    <text class="step-number" x="62" y="42">STEP 05</text>
    <text class="step-title" x="30" y="88">Open</text>
    <text class="step-title" x="30" y="119">Diagnostics</text>
    <text class="step-copy" x="30" y="160">Use technical</text>
    <text class="step-copy" x="30" y="184">payloads only</text>
    <text class="step-copy" x="30" y="208">when needed.</text>
  </g>

  <rect x="112" y="622" width="1224" height="64" rx="32" fill="#e8f2f6" stroke="#bed4df"/>
  <text class="footer" x="152" y="662">Outcome: an accountant-readable snapshot review that keeps technical payloads available without making them the main product experience.</text>

  <text class="subtitle" x="88" y="802">Designed for accountants, finance-system builders, and reviewers who need evidence before raw diagnostics.</text>
</svg>
