<svg xmlns="http://www.w3.org/2000/svg" width="1440" height="900" viewBox="0 0 1440 900" role="img" aria-labelledby="title desc">
  <title id="title">Modular Accounting Architecture Overview</title>
  <desc id="desc">High-level architecture showing review surfaces, orchestration, domain controls, provider adapters, and release assurance for Modular Accounting.</desc>
  <defs>
    <linearGradient id="bg" x1="0" y1="0" x2="1" y2="1">
      <stop offset="0" stop-color="#f7fbff"/>
      <stop offset="1" stop-color="#eef6f2"/>
    </linearGradient>
    <filter id="shadow" x="-8%" y="-10%" width="116%" height="126%">
      <feDropShadow dx="0" dy="10" stdDeviation="12" flood-color="#1b3544" flood-opacity="0.12"/>
    </filter>
    <marker id="arrow" viewBox="0 0 10 10" refX="9" refY="5" markerWidth="8" markerHeight="8" orient="auto">
      <path d="M 0 0 L 10 5 L 0 10 z" fill="#456579"/>
    </marker>
    <style>
      .title { font: 700 44px system-ui, -apple-system, Segoe UI, sans-serif; fill: #17364a; }
      .subtitle { font: 400 21px system-ui, -apple-system, Segoe UI, sans-serif; fill: #516879; }
      .box-title { font: 700 24px system-ui, -apple-system, Segoe UI, sans-serif; fill: #17364a; }
      .box-text { font: 400 18px system-ui, -apple-system, Segoe UI, sans-serif; fill: #506575; }
      .chip { font: 700 14px ui-monospace, SFMono-Regular, Consolas, monospace; fill: #2d6179; }
      .card { fill: #ffffff; stroke: #c5d8e2; stroke-width: 1.5; filter: url(#shadow); }
      .arrow { stroke: #456579; stroke-width: 3.5; fill: none; marker-end: url(#arrow); stroke-linecap: round; stroke-linejoin: round; }
      .soft { fill: #e8f2f6; stroke: #bed4df; }
    </style>
  </defs>

  <rect width="1440" height="900" fill="url(#bg)"/>

  <text class="title" x="88" y="86">Modular Accounting Architecture</text>
  <text class="subtitle" x="88" y="124">A compact toolkit for provider-backed snapshots, journal controls, and release evidence without becoming a full ERP.</text>

  <g transform="translate(88 178)">
    <rect class="card" x="0" y="0" width="270" height="230" rx="26"/>
    <text class="box-title" x="32" y="48">Review Surfaces</text>
    <text class="box-text" x="32" y="90">Streamlit snapshot review</text>
    <text class="box-text" x="32" y="120">FastAPI routes</text>
    <text class="box-text" x="32" y="150">Operational CLI</text>
    <rect class="soft" x="32" y="176" width="206" height="34" rx="17"/>
    <text class="chip" x="52" y="198">README + examples</text>
  </g>

  <path class="arrow" d="M 372 293 H 416"/>

  <g transform="translate(430 178)">
    <rect class="card" x="0" y="0" width="320" height="230" rx="26"/>
    <text class="box-title" x="32" y="48">Snapshot Orchestration</text>
    <text class="box-text" x="32" y="90">Provider selection</text>
    <text class="box-text" x="32" y="120">FX, market, and tax data</text>
    <text class="box-text" x="32" y="150">Freshness and cache metrics</text>
    <rect class="soft" x="32" y="176" width="246" height="34" rx="17"/>
    <text class="chip" x="52" y="198">SnapshotOrchestrator</text>
  </g>

  <path class="arrow" d="M 764 293 H 808"/>

  <g transform="translate(822 178)">
    <rect class="card" x="0" y="0" width="260" height="230" rx="26"/>
    <text class="box-title" x="32" y="48">Domain Controls</text>
    <text class="box-text" x="32" y="90">Money and rates</text>
    <text class="box-text" x="32" y="120">Tax rule contracts</text>
    <text class="box-text" x="32" y="150">Balanced journal postings</text>
    <rect class="soft" x="32" y="176" width="178" height="34" rx="17"/>
    <text class="chip" x="52" y="198">domain layer</text>
  </g>

  <path class="arrow" d="M 1096 293 H 1140"/>

  <g transform="translate(1154 178)">
    <rect class="card" x="0" y="0" width="198" height="230" rx="26"/>
    <text class="box-title" x="28" y="48">Adapters</text>
    <text class="box-text" x="28" y="90">FX providers</text>
    <text class="box-text" x="28" y="120">Market providers</text>
    <text class="box-text" x="28" y="150">Tax providers</text>
    <rect class="soft" x="28" y="176" width="132" height="34" rx="17"/>
    <text class="chip" x="48" y="198">plugins</text>
  </g>

  <path class="arrow" d="M 590 422 V 490"/>
  <path class="arrow" d="M 952 422 V 455 H 1012 V 490"/>

  <g transform="translate(214 506)">
    <rect class="card" x="0" y="0" width="430" height="230" rx="26"/>
    <text class="box-title" x="34" y="50">Operational Assurance</text>
    <text class="box-text" x="34" y="94">Quality gate: lint, format, typing, tests</text>
    <text class="box-text" x="34" y="126">Dependency audit and current-tree secret scan</text>
    <text class="box-text" x="34" y="158">Hosted CI matrix for Python 3.12, 3.13, 3.14</text>
    <rect class="soft" x="34" y="184" width="310" height="34" rx="17"/>
    <text class="chip" x="54" y="206">python -m src.tools.quality_gate</text>
  </g>

  <path class="arrow" d="M 658 621 H 782"/>

  <g transform="translate(796 506)">
    <rect class="card" x="0" y="0" width="430" height="230" rx="26"/>
    <text class="box-title" x="34" y="50">Release Evidence</text>
    <text class="box-text" x="34" y="94">Public release audit</text>
    <text class="box-text" x="34" y="126">README visuals and portfolio collateral</text>
    <text class="box-text" x="34" y="158">Changelog, release notes, and audit metrics</text>
    <rect class="soft" x="34" y="184" width="292" height="34" rx="17"/>
    <text class="chip" x="54" y="206">PUBLIC_RELEASE_AUDIT.md</text>
  </g>

  <rect x="88" y="792" width="1264" height="58" rx="29" fill="#e8f2f6" stroke="#bed4df"/>
  <text class="subtitle" x="128" y="829">The architecture keeps accountant-facing review separate from technical diagnostics while preserving traceable evidence for public portfolio review.</text>
</svg>
